<svg width="20" height="20" viewBox="0 0 20 20" fill="none" xmlns="http://www.w3.org/2000/svg">
<path d="M3.76835 10.1406L5.66679 9.44916C5.72538 9.42577 5.79569 9.41405 5.86597 9.41405H18.03C18.3582 9.41405 18.616 9.67182 18.616 9.99998V18.2422C18.616 19.2148 17.8308 20 16.8582 20H5.1394C4.16671 20 3.38159 19.2148 3.38159 18.2422V10.6914C3.38159 10.4453 3.53397 10.2226 3.76835 10.1406Z" fill="#FC1A40"/>
<path d="M3.38135 10.6914V18.2422C3.38135 19.2148 4.16646 20 5.13916 20H10.9985V9.41405H5.86572C5.79541 9.41405 5.7251 9.42577 5.66654 9.44916L3.76811 10.1406C3.53373 10.2226 3.38135 10.4453 3.38135 10.6914Z" fill="#C60034"/>
<path d="M3.59235 3.81985C3.79153 3.01126 4.38922 2.37848 5.19782 2.12063C5.99469 1.8745 6.8502 2.05032 7.47126 2.61278L8.83067 3.80813L9.10016 2.0152C9.22907 1.19489 9.75641 0.503446 10.5415 0.17536C10.6939 0.116727 10.8462 0.0698518 10.9986 0.0464143C11.6431 -0.0824919 12.3111 0.0581331 12.8502 0.45661C13.565 0.972235 13.9282 1.83942 13.8111 2.70657C13.6822 3.57376 13.0962 4.31204 12.2642 4.60501L10.9986 5.06204L9.43997 5.63626C9.42825 5.63626 9.42825 5.63626 9.42825 5.63626L6.72122 6.63231C6.45172 6.7261 6.17047 6.77302 5.90094 6.77302C5.32665 6.77302 4.76418 6.562 4.31887 6.1636C3.66266 5.57766 3.38141 4.67528 3.59235 3.81985Z" fill="#FE9923"/>
<path d="M4.31885 6.1636C4.76416 6.562 5.32666 6.77301 5.90092 6.77301C6.17041 6.77301 6.45166 6.7261 6.72119 6.63231L9.42822 5.63625C9.42822 5.63625 9.42822 5.63625 9.43994 5.63625L10.9985 5.06204V0.0463715C10.8462 0.069848 10.6938 0.116684 10.5415 0.175317C9.75639 0.503403 9.229 1.19485 9.10014 2.01516L8.83064 3.80809L7.47123 2.61274C6.85018 2.05028 5.99467 1.87446 5.19779 2.12059C4.3892 2.37844 3.79154 3.01122 3.59232 3.81981C3.38135 4.67528 3.6626 5.57766 4.31885 6.1636Z" fill="#FE8821"/>
<path d="M1.37758 9.14446L2.17446 11.3476C2.26824 11.582 2.4909 11.7226 2.72528 11.7226C2.79559 11.7226 2.8659 11.7109 2.92445 11.6875L8.98309 9.48434L9.53383 7.66794L10.9987 7.99602L12.2877 8.28899L18.3463 6.08587C18.651 5.96872 18.8033 5.62883 18.6979 5.33587L17.8893 3.13282C17.737 2.68751 17.4088 2.33587 16.9869 2.13669C16.565 1.93751 16.0846 1.91403 15.6393 2.07809L10.9986 3.76559L10.6822 3.88274C10.6822 3.88274 9.4166 6.17965 9.38141 6.17965C9.35793 6.17965 8.85406 5.8984 8.36188 5.62883C7.86981 5.3593 7.37758 5.07809 7.37758 5.07809L2.43231 6.88274C1.98699 7.0468 1.63543 7.37497 1.43625 7.79684C1.23696 8.21868 1.21356 8.69919 1.37758 9.14446Z" fill="#FF3E75"/>
<path d="M1.37744 9.14446L2.17432 11.3476C2.26811 11.582 2.49076 11.7226 2.72514 11.7226C2.79545 11.7226 2.86576 11.7109 2.92432 11.6875L8.98295 9.48434L9.53369 7.66794L10.9985 7.99602V3.76559L10.6821 3.88274C10.6821 3.88274 9.4165 6.17966 9.38131 6.17966C9.35783 6.17966 8.85396 5.89841 8.36178 5.62884C7.86967 5.35931 7.37744 5.07809 7.37744 5.07809L2.43217 6.88274C1.98686 7.04681 1.63529 7.37497 1.43611 7.79684C1.23682 8.21868 1.21342 8.69919 1.37744 9.14446Z" fill="#FC1A40"/>
<path d="M12.7566 9.41405V20H9.24097V9.41405H12.7566Z" fill="#FCBF29"/>
<path d="M10.6824 3.88275L10.9988 4.74994L12.2878 8.28904L10.9988 8.75783L9.53398 9.28517L8.98323 9.48435L7.37769 5.0781L10.6824 3.88275Z" fill="#FCBF29"/>
<path d="M9.24048 9.41405H10.9983V20H9.24048V9.41405Z" fill="#FE9923"/>
<path d="M7.37744 5.0781L8.98295 9.48435L9.53369 9.28513L10.9985 8.75779V4.74994L10.6821 3.88275L7.37744 5.0781Z" fill="#FE9923"/>
</svg>
